<svg version="1" xmlns="http://www.w3.org/2000/svg" width="933.333" height="933.333" viewBox="0 0 700.000000 700.000000"><path d="M360.9.5c-.2.2-1.7.6-3.4.8-9.2 1.7-22.4 7.6-27.2 12.3-.7.7-2.3 2.1-3.5 3.1-10.3 8.3-21.8 28-29.5 50.7-2.9 8.4-11.3 40.5-12.7 48.3-.3 1.2-1.4 5.7-2.6 10-1.2 4.3-2.3 8.6-2.5 9.6-.9 4.3-6.6 13.1-13.2 20.3-11.8 12.9-8.9 9.3-41.5 51.7-8.1 10.6-15.8 20.5-17 22.2-7.6 9.8-15.2 18.9-21.5 25.5l-7.3 7.5h-67.7c-37.3 0-70.5.3-73.8.7C20.6 265.4 4.8 280.1 1 297c-.6 2.9-1 65.5-1 174.5.1 184.9-.3 172 5.5 183.5 3 5.9 11.1 14.2 16.8 17.2 10.3 5.4 7.6 5.2 63.7 5.5l52.5.3 6.8-2.4c9-3.3 10.3-4.2 17.7-11.7 4.2-4.2 7.4-9.5 9.9-16 .8-2.3 1.5-2.6 4.3-2.3 1.8.2 5.8.6 8.8.9 12.4 1.4 24.1 5 54.6 17.1 54.3 21.4 87 30.1 128.4 33.9 3.6.4 8.3.9 10.5 1.2 6.9.9 85.7 1.1 91.5.3 3-.5 8-1.1 11-1.4 3-.3 6.6-.8 8-1.1 1.4-.3 3.4-.7 4.5-.9 42.7-8.7 72.3-28.1 90-59.2 8.6-15.1 14.8-35.7 16-53.5 1-13 1.1-13.4 4.9-19.2 6.6-10 15.1-30.3 17.2-41.1.5-2.7 1.3-6.4 2-9.6.3-1.4.7-10.2.9-19.6.3-16.1.4-17.3 2.9-22.2 3.6-7.1 8.3-22 10-31.7 1.8-10.5 1.2-44.2-.8-46.2-.3-.3 1-3.4 2.9-6.8 13.8-25.1 18.8-56.4 13.4-84.5-2.9-15.2-11.2-33.7-20.9-46.7-17.7-23.6-45.3-41.5-70.5-45.8-1.6-.3-4.1-.8-5.5-1-6.2-1.3-11.2-1.5-38.8-1.5-27.2-.1-29.3-.2-28.7-1.8 3.7-8.7 7.2-22.2 9.4-36.2 1.4-8.9 1.8-15.9 1.6-31-.2-10.7-.5-20.9-.8-22.5-.3-1.7-.9-5.3-1.3-8-.4-2.8-.8-5.5-1-6-.1-.6-.5-2.6-.8-4.5-3.1-17.1-11.4-36.9-21.2-50.7-15.3-21.5-42.1-38.1-68.9-42.7-1.6-.3-4.1-.8-5.5-1.1-1.4-.3-4.3-.7-6.5-1-4.8-.7-33.1-1.6-33.6-1zm34.4 68c14.6 3.7 26.7 12.9 32.4 24.7 5.2 10.8 7.3 22 7.7 41.5.5 27.1-3.3 41.7-20 75.3-13 26.3-17.6 40.4-17.8 55l-.1 7.5H472c66.4.1 75.1.3 79.9 1.8 20.5 6.4 37.2 26.5 38.4 46.5.9 14.2-4.3 31.3-13.2 43.2-3.8 5.1-7 7.8-12.2 10.3l-4.5 2.2 2.3 2.5c3.2 3.4 8 13.7 9.9 21.2 1.7 6.7 2.2 19.3 1.1 26.9-1.7 11.1-7.7 23.6-15.7 33l-4.8 5.5 2.3 5c6.2 13.4 6.3 30.3.4 45.9-4.1 10.6-11.9 21.5-18.4 25.5-3.1 1.9-3.3 2.4-2.9 6.3.3 2.3.7 9.5.8 16.1 1 41.8-19.6 65-61.9 69.3-13.4 1.4-86.4.6-95-1.1-1.1-.2-4.5-.7-7.5-1.1-4.7-.5-8.6-1.2-24-4.1-10.5-2-35.7-9.6-71-21.4-36.2-12.1-55.7-17.7-70.5-20.5-6.5-1.3-7.5-1.4-19.2-2.1l-11.3-.7V328.1h9.4c16.8-.1 26.5-5.1 45.1-23.6 12.5-12.5 25.6-28.3 49.5-60 17.3-23 30.7-39.6 39.5-49 3.6-3.9 7.7-8.8 9.2-11 1.6-2.2 3.1-4.2 3.4-4.5 1.9-1.5 10.2-21 12.7-30 2.7-9.4 6.2-24.1 6.8-28 .5-3.7 2.7-14 4.1-19.5.8-3.3 1.7-7.1 2-8.4 1.6-8.9 10.9-26.6 14.5-28 2.5-.9 16.3.5 24.1 2.4zM98.8 559.9c2.3.8 4.2 1.9 4.2 2.3 0 .4.6.8 1.3.8 3.2 0 12.9 11.9 14.3 17.5 2.4 9.3 1.9 16.3-1.4 23.8-5.8 12.7-20.4 20.6-34.4 18.6-7.1-1.1-15.3-5.5-19.8-10.7-15.4-18.1-7.7-45.5 15-52.8 5-1.6 15.8-1.4 20.8.5z"/></svg>